<svg xmlns="http://www.w3.org/2000/svg" xmlns:xlink="http://www.w3.org/1999/xlink" width="350" zoomAndPan="magnify" viewBox="0 0 262.5 89.999999" height="120" preserveAspectRatio="xMidYMid meet" version="1.0"><defs><g/><clipPath id="362d2485a5"><path d="M 85 30.519531 L 104 30.519531 L 104 36 L 85 36 Z M 85 30.519531 " clip-rule="nonzero"/></clipPath><clipPath id="6975c17a48"><path d="M 83.921875 46 L 104.605469 46 L 104.605469 52 L 83.921875 52 Z M 83.921875 46 " clip-rule="nonzero"/></clipPath><clipPath id="b9e624d1d2"><path d="M 84 54 L 104.605469 54 L 104.605469 58.886719 L 84 58.886719 Z M 84 54 " clip-rule="nonzero"/></clipPath><clipPath id="0770e09517"><path d="M 108 43 L 116.929688 43 L 116.929688 48 L 108 48 Z M 108 43 " clip-rule="nonzero"/></clipPath><clipPath id="ad56bfa689"><path d="M 107.476562 37 L 116 37 L 116 42 L 107.476562 42 Z M 107.476562 37 " clip-rule="nonzero"/></clipPath><clipPath id="55bcce1631"><path d="M 108 30.519531 L 116.929688 30.519531 L 116.929688 36 L 108 36 Z M 108 30.519531 " clip-rule="nonzero"/></clipPath><clipPath id="4ca7ab86f5"><path d="M 107.476562 50 L 116 50 L 116 55 L 107.476562 55 Z M 107.476562 50 " clip-rule="nonzero"/></clipPath><clipPath id="6c54bca58b"><path d="M 108 56 L 116.929688 56 L 116.929688 59.480469 L 108 59.480469 Z M 108 56 " clip-rule="nonzero"/></clipPath></defs><g clip-path="url(#362d2485a5)"><path fill="#f7931e" d="M 85.257812 35.035156 L 102.902344 35.035156 L 103.730469 32.644531 C 101.144531 31.25 98.117188 30.527344 95.222656 30.523438 C 91.097656 30.519531 87.234375 31.972656 85.257812 35.035156 Z M 85.257812 35.035156 " fill-opacity="1" fill-rule="nonzero"/></g><path fill="#f15a24" d="M 86.253906 43.308594 L 103.714844 43.308594 C 100.6875 41.023438 96.019531 41.253906 96.019531 39.570312 C 96.019531 38.617188 96.882812 38.214844 97.722656 38.214844 C 99.335938 38.214844 101.394531 39.601562 102.726562 40.621094 L 103.671875 37.890625 L 85.859375 37.890625 C 85.515625 39.539062 85.554688 41.671875 86.253906 43.308594 Z M 86.253906 43.308594 " fill-opacity="1" fill-rule="nonzero"/><g clip-path="url(#6975c17a48)"><path fill="#ed1c24" d="M 104.066406 46.167969 L 86.964844 46.167969 C 89.742188 47.933594 93.210938 47.582031 93.210938 49.226562 C 93.210938 51.257812 90.273438 51.640625 85.304688 47.816406 L 83.925781 51.585938 L 104.144531 51.585938 C 104.355469 50.773438 104.480469 49.828125 104.480469 48.875 C 104.480469 47.9375 104.355469 46.996094 104.066406 46.167969 Z M 104.066406 46.167969 " fill-opacity="1" fill-rule="nonzero"/></g><g clip-path="url(#b9e624d1d2)"><path fill="#c1272d" d="M 84.636719 54.441406 L 84.070312 55.988281 C 87.464844 57.925781 91.207031 58.886719 94.636719 58.875 C 98.835938 58.863281 102.566406 57.386719 104.605469 54.441406 Z M 84.636719 54.441406 " fill-opacity="1" fill-rule="nonzero"/></g><g clip-path="url(#0770e09517)"><path fill="#f15a24" d="M 108.757812 43.886719 L 116.929688 43.886719 L 116.929688 47.902344 L 108.757812 47.902344 Z M 108.757812 43.886719 " fill-opacity="1" fill-rule="nonzero"/></g><g clip-path="url(#ad56bfa689)"><path fill="#f7931e" d="M 108.9375 37.75 L 114.230469 37.75 C 112.9375 38.597656 110.277344 38.621094 108.9375 37.75 Z M 107.476562 41.765625 L 115.648438 41.765625 L 115.648438 39.261719 L 107.476562 39.261719 Z M 107.476562 41.765625 " fill-opacity="1" fill-rule="nonzero"/></g><g clip-path="url(#55bcce1631)"><path fill="#ffc84d" d="M 116.828125 35.632812 C 116.894531 35.28125 116.929688 34.894531 116.929688 34.46875 C 116.929688 31.636719 115.425781 30.558594 112.855469 30.558594 C 110.289062 30.558594 108.757812 31.570312 108.757812 34.421875 C 108.757812 34.859375 108.792969 35.265625 108.867188 35.632812 Z M 116.828125 35.632812 " fill-opacity="1" fill-rule="nonzero"/></g><g clip-path="url(#4ca7ab86f5)"><path fill="#ed1c24" d="M 107.476562 50.019531 L 115.648438 50.019531 L 115.648438 54.039062 L 107.476562 54.039062 Z M 107.476562 50.019531 " fill-opacity="1" fill-rule="nonzero"/></g><g clip-path="url(#6c54bca58b)"><path fill="#c1272d" d="M 108.757812 56.15625 L 116.929688 56.15625 L 116.929688 59.441406 L 108.757812 59.441406 Z M 108.757812 56.15625 " fill-opacity="1" fill-rule="nonzero"/></g><g fill="#000000" fill-opacity="1"><g transform="translate(117.031186, 48.997141)"><g><path d="M 2.484375 -5.8125 C 3.117188 -5.8125 3.613281 -5.625 3.96875 -5.25 C 4.320312 -4.875 4.539062 -4.359375 4.625 -3.703125 L 3.4375 -3.703125 C 3.375 -4.046875 3.265625 -4.316406 3.109375 -4.515625 C 2.960938 -4.710938 2.753906 -4.8125 2.484375 -4.8125 C 2.109375 -4.8125 1.84375 -4.632812 1.6875 -4.28125 C 1.53125 -3.925781 1.453125 -3.445312 1.453125 -2.84375 C 1.453125 -2.226562 1.53125 -1.742188 1.6875 -1.390625 C 1.84375 -1.046875 2.109375 -0.875 2.484375 -0.875 C 2.753906 -0.875 2.960938 -0.96875 3.109375 -1.15625 C 3.265625 -1.351562 3.375 -1.628906 3.4375 -1.984375 L 4.625 -1.984375 C 4.539062 -1.328125 4.320312 -0.8125 3.96875 -0.4375 C 3.613281 -0.0625 3.117188 0.125 2.484375 0.125 C 1.722656 0.125 1.160156 -0.132812 0.796875 -0.65625 C 0.441406 -1.1875 0.265625 -1.914062 0.265625 -2.84375 C 0.265625 -3.757812 0.441406 -4.484375 0.796875 -5.015625 C 1.160156 -5.546875 1.722656 -5.8125 2.484375 -5.8125 Z M 2.484375 -5.8125 "/></g></g></g><g fill="#000000" fill-opacity="1"><g transform="translate(121.875395, 48.997141)"><g><path d="M 0.34375 -5.671875 L 3.796875 -5.671875 L 3.796875 -4.65625 L 1.546875 -4.65625 L 1.546875 -3.34375 L 3.34375 -3.34375 L 3.34375 -2.328125 L 1.546875 -2.328125 L 1.546875 -1.015625 L 3.796875 -1.015625 L 3.796875 0 L 0.34375 0 Z M 0.34375 -5.671875 "/></g></g></g><g fill="#000000" fill-opacity="1"><g transform="translate(125.812326, 48.997141)"><g><path d="M 1.53125 -4.65625 L 1.53125 -3.15625 L 2.21875 -3.15625 C 2.457031 -3.15625 2.640625 -3.222656 2.765625 -3.359375 C 2.890625 -3.503906 2.953125 -3.695312 2.953125 -3.9375 C 2.953125 -4.175781 2.890625 -4.351562 2.765625 -4.46875 C 2.640625 -4.59375 2.457031 -4.65625 2.21875 -4.65625 Z M 1.53125 -2.15625 L 1.53125 0 L 0.34375 0 L 0.34375 -5.671875 L 2.453125 -5.671875 C 2.984375 -5.671875 3.398438 -5.535156 3.703125 -5.265625 C 4.003906 -4.992188 4.15625 -4.578125 4.15625 -4.015625 C 4.15625 -3.390625 3.960938 -2.9375 3.578125 -2.65625 C 3.765625 -2.539062 3.90625 -2.382812 4 -2.1875 C 4.101562 -2 4.15625 -1.789062 4.15625 -1.5625 L 4.15625 -0.359375 C 4.15625 -0.285156 4.171875 -0.210938 4.203125 -0.140625 C 4.234375 -0.078125 4.289062 -0.03125 4.375 0 L 3.15625 0 C 3.09375 -0.0195312 3.039062 -0.0664062 3 -0.140625 C 2.96875 -0.210938 2.953125 -0.285156 2.953125 -0.359375 L 2.953125 -1.65625 C 2.953125 -1.789062 2.898438 -1.90625 2.796875 -2 C 2.703125 -2.101562 2.585938 -2.15625 2.453125 -2.15625 Z M 1.53125 -2.15625 "/></g></g></g><g fill="#000000" fill-opacity="1"><g transform="translate(130.332508, 48.997141)"><g><path d="M 0.078125 -5.671875 L 3.890625 -5.671875 L 3.890625 -4.65625 L 2.59375 -4.65625 L 2.59375 0 L 1.390625 0 L 1.390625 -4.65625 L 0.078125 -4.65625 Z M 0.078125 -5.671875 "/></g></g></g><g fill="#000000" fill-opacity="1"><g transform="translate(134.28564, 48.997141)"><g><path d="M 0.34375 -5.671875 L 1.546875 -5.671875 L 1.546875 0 L 0.34375 0 Z M 0.34375 -5.671875 "/></g></g></g><g fill="#000000" fill-opacity="1"><g transform="translate(136.148797, 48.997141)"><g><path d="M 0.34375 -5.671875 L 3.796875 -5.671875 L 3.796875 -4.65625 L 1.546875 -4.65625 L 1.546875 -3.34375 L 3.34375 -3.34375 L 3.34375 -2.328125 L 1.546875 -2.328125 L 1.546875 0 L 0.34375 0 Z M 0.34375 -5.671875 "/></g></g></g><g fill="#000000" fill-opacity="1"><g transform="translate(140.069528, 48.997141)"><g><path d="M 0.34375 -5.671875 L 1.546875 -5.671875 L 1.546875 0 L 0.34375 0 Z M 0.34375 -5.671875 "/></g></g></g><g fill="#000000" fill-opacity="1"><g transform="translate(141.932685, 48.997141)"><g><path d="M 2.484375 -5.8125 C 3.117188 -5.8125 3.613281 -5.625 3.96875 -5.25 C 4.320312 -4.875 4.539062 -4.359375 4.625 -3.703125 L 3.4375 -3.703125 C 3.375 -4.046875 3.265625 -4.316406 3.109375 -4.515625 C 2.960938 -4.710938 2.753906 -4.8125 2.484375 -4.8125 C 2.109375 -4.8125 1.84375 -4.632812 1.6875 -4.28125 C 1.53125 -3.925781 1.453125 -3.445312 1.453125 -2.84375 C 1.453125 -2.226562 1.53125 -1.742188 1.6875 -1.390625 C 1.84375 -1.046875 2.109375 -0.875 2.484375 -0.875 C 2.753906 -0.875 2.960938 -0.96875 3.109375 -1.15625 C 3.265625 -1.351562 3.375 -1.628906 3.4375 -1.984375 L 4.625 -1.984375 C 4.539062 -1.328125 4.320312 -0.8125 3.96875 -0.4375 C 3.613281 -0.0625 3.117188 0.125 2.484375 0.125 C 1.722656 0.125 1.160156 -0.132812 0.796875 -0.65625 C 0.441406 -1.1875 0.265625 -1.914062 0.265625 -2.84375 C 0.265625 -3.757812 0.441406 -4.484375 0.796875 -5.015625 C 1.160156 -5.546875 1.722656 -5.8125 2.484375 -5.8125 Z M 2.484375 -5.8125 "/></g></g></g><g fill="#000000" fill-opacity="1"><g transform="translate(146.776893, 48.997141)"><g><path d="M 1.46875 -5.671875 L 3.0625 -5.671875 L 4.453125 0 L 3.234375 0 L 2.9375 -1.296875 L 1.578125 -1.296875 L 1.296875 0 L 0.078125 0 Z M 2.71875 -2.3125 L 2.265625 -4.375 L 1.8125 -2.3125 Z M 2.71875 -2.3125 "/></g></g></g></svg>